<?xml version="1.0" standalone="no"?>
<!DOCTYPE svg PUBLIC "-//W3C//DTD SVG 20010904//EN"
 "http://www.w3.org/TR/2001/REC-SVG-20010904/DTD/svg10.dtd">
<svg version="1.0" xmlns="http://www.w3.org/2000/svg"
 width="396.000000pt" height="396.000000pt" viewBox="0 0 396.000000 396.000000"
 preserveAspectRatio="xMidYMid meet">

<g transform="translate(0.000000,396.000000) scale(0.100000,-0.100000)"
fill="#000000" stroke="none">
<path d="M1828 3769 c-76 -11 -195 -52 -266 -91 -31 -17 -96 -71 -144 -118
-72 -73 -94 -103 -132 -181 -71 -147 -90 -240 -90 -444 -1 -203 18 -296 90
-444 76 -157 220 -283 389 -341 32 -11 61 -20 65 -20 4 0 15 37 24 82 10 45
30 114 46 152 l28 71 -47 27 c-130 73 -200 240 -201 470 0 203 45 345 142 442
83 83 135 96 370 96 l188 0 0 -294 0 -295 53 23 c59 27 171 59 265 77 l62 12
0 393 0 394 -392 -1 c-216 -1 -419 -5 -450 -10z"/>
<path d="M122 2283 c4 -408 6 -432 27 -503 41 -138 87 -216 186 -316 76 -76
105 -97 185 -137 146 -72 240 -91 445 -91 203 -1 296 18 444 90 157 76 283
220 341 389 11 32 20 61 20 65 0 4 -37 15 -82 24 -45 10 -114 30 -152 46 l-71
28 -27 -47 c-73 -130 -240 -200 -470 -201 -255 0 -432 80 -505 228 -28 56 -28
60 -31 265 l-3 207 295 0 295 0 -23 53 c-27 59 -59 171 -77 265 l-12 62 -394
0 -395 0 4 -427z"/>
<path d="M2728 2700 c-105 -17 -182 -41 -277 -86 -157 -76 -283 -220 -341
-389 -11 -32 -20 -61 -20 -65 0 -4 37 -15 82 -24 45 -10 114 -30 152 -46 l71
-28 27 47 c73 130 240 200 470 201 259 0 425 -75 500 -228 l33 -66 3 -203 3
-203 -295 0 -295 0 23 -53 c27 -59 59 -171 77 -264 l12 -63 394 0 395 0 -4
428 c-4 407 -6 431 -27 502 -41 138 -87 216 -186 316 -76 76 -105 97 -185 137
-132 65 -232 87 -410 92 -80 2 -171 0 -202 -5z"/>
<path d="M2096 1728 c-10 -45 -30 -114 -46 -152 l-28 -71 47 -27 c130 -73 200
-240 201 -470 0 -259 -75 -425 -228 -500 l-66 -33 -203 -3 -203 -3 0 295 0
295 -53 -23 c-59 -27 -171 -59 -264 -77 l-63 -12 0 -394 0 -395 428 4 c407 4
431 6 502 27 138 41 216 87 316 186 78 77 98 104 137 185 72 148 91 241 91
445 1 203 -18 296 -90 444 -76 157 -220 283 -389 341 -32 11 -61 20 -65 20 -4
0 -15 -37 -24 -82z"/>
</g>
</svg>
